<svg width="3655" height="253" viewBox="0 0 3655 253" fill="none" xmlns="http://www.w3.org/2000/svg">
<path d="M49.0336 43.0711H0V31.0727H111.354V43.0711H62.3201V246.736H49.0336V43.0711Z" fill="white"/>
<path d="M130.357 91.9876H145.225L146.49 115.061C149.232 106.652 153.45 99.9865 159.144 95.0641C164.838 90.1417 171.06 87.6805 177.809 87.6805C183.925 87.6805 189.513 89.6289 194.575 93.5258C199.847 97.2176 203.96 102.55 206.912 109.524C210.076 116.292 211.658 123.881 211.658 132.29L196.157 137.212C196.157 127.162 194.153 118.958 190.146 112.6C186.35 106.037 181.183 102.755 174.645 102.755C169.162 102.755 164.417 105.319 160.41 110.447C156.403 115.369 153.239 122.548 150.919 131.982C148.81 141.212 147.756 152.185 147.756 164.901V246.736H130.357V91.9876Z" fill="white"/>
<path d="M277.195 251.966C266.862 251.966 257.688 250.12 249.673 246.428C241.659 242.736 235.332 237.609 230.693 231.046C226.264 224.277 224.049 216.586 224.049 207.972C224.049 199.563 226.264 192.077 230.693 185.513C235.122 178.745 242.187 173.002 251.888 168.285C261.8 163.363 274.665 159.876 290.482 157.825L321.8 153.21C324.964 152.8 327.494 151.672 329.393 149.826C331.291 147.98 332.24 145.621 332.24 142.75C332.24 133.726 330.447 126.239 326.862 120.291C323.277 114.138 318.426 109.626 312.31 106.755C306.194 103.883 299.234 102.448 291.431 102.448C282.995 102.448 275.403 104.191 268.654 107.678C262.116 111.164 256.949 115.882 253.153 121.83C249.568 127.778 247.67 134.136 247.459 140.904L231.642 134.443C232.274 125.829 235.227 117.83 240.499 110.447C245.772 103.063 252.837 97.2177 261.695 92.9105C270.552 88.6034 280.57 86.4499 291.747 86.4499C303.136 86.4499 313.153 88.706 321.8 93.2182C330.447 97.5253 337.196 104.089 342.046 112.908C346.897 121.522 349.322 131.982 349.322 144.288V223.047C349.322 227.149 350.166 230.328 351.853 232.584C353.54 234.84 355.86 235.968 358.813 235.968C361.343 235.968 363.769 235.148 366.089 233.507C368.619 231.866 370.939 229.405 373.048 226.123L382.539 237.506C379.375 242.429 375.368 246.018 370.517 248.274C365.667 250.735 360.711 251.966 355.649 251.966C348.479 251.966 342.679 249.71 338.25 245.198C333.821 240.685 331.607 234.635 331.607 227.046V219.355C328.444 226.123 324.226 231.969 318.953 236.891C313.681 241.608 307.459 245.3 300.289 247.967C293.118 250.633 285.42 251.966 277.195 251.966ZM280.359 236.276C290.271 236.276 299.129 233.917 306.932 229.2C314.735 224.277 320.746 217.509 324.964 208.895C329.393 200.281 331.607 190.436 331.607 179.36V167.362L293.013 172.592C274.454 175.258 261.167 179.566 253.153 185.513C245.35 191.461 241.448 198.742 241.448 207.357C241.448 215.971 245.034 222.944 252.204 228.277C259.375 233.609 268.76 236.276 280.359 236.276Z" fill="white"/>
<path d="M398.509 91.3723H420.337L422.551 111.985C426.98 103.986 433.413 97.6279 441.849 92.9105C450.284 87.9881 459.142 85.5269 468.422 85.5269C479.388 85.5269 489.089 88.1932 497.525 93.5258C506.172 98.6533 512.815 105.832 517.455 115.061C522.306 124.291 524.731 134.751 524.731 146.442V246.736H500.689V146.442C500.689 138.853 499.107 132.085 495.944 126.137C492.991 119.984 488.773 115.267 483.29 111.985C477.807 108.703 471.48 107.062 464.309 107.062C456.717 107.062 449.757 108.908 443.43 112.6C437.103 116.292 432.042 121.42 428.246 127.983C424.45 134.341 422.551 141.622 422.551 149.826V246.736H398.509V91.3723Z" fill="white"/>
<path d="M623.792 252.581C610.084 252.581 597.535 250.325 586.147 245.813C574.758 241.301 565.373 235.045 557.992 227.046C550.821 218.842 546.498 209.51 545.022 199.05L576.973 193.512C577.605 199.665 579.925 205.306 583.932 210.433C588.15 215.356 593.739 219.252 600.699 222.124C607.869 224.79 615.778 226.123 624.425 226.123C631.806 226.123 638.449 225.098 644.354 223.047C650.259 220.996 654.899 218.33 658.274 215.048C661.859 211.561 663.651 207.562 663.651 203.05C663.651 198.742 661.859 195.256 658.274 192.589C654.688 189.718 650.049 187.462 644.354 185.821C638.66 183.975 631.595 182.437 623.159 181.206C622.737 181.001 622.21 180.899 621.577 180.899C620.945 180.899 620.312 180.796 619.679 180.591C605.76 178.54 594.266 176.181 585.198 173.515C576.129 170.849 568.537 166.337 562.421 159.978C556.305 153.62 553.247 144.801 553.247 133.52C553.247 124.086 555.883 115.677 561.155 108.293C566.639 100.704 574.231 94.859 583.932 90.757C593.634 86.655 604.495 84.604 616.516 84.604C628.326 84.604 638.976 86.4499 648.467 90.1417C658.168 93.6284 666.182 98.6534 672.509 105.217C678.836 111.78 682.949 119.266 684.847 127.675L654.161 135.366C653.107 128.188 649.1 122.24 642.14 117.523C635.18 112.805 626.534 110.447 616.2 110.447C610.294 110.447 605.022 111.472 600.382 113.523C595.743 115.369 592.052 118.035 589.31 121.522C586.779 124.804 585.514 128.495 585.514 132.597C585.514 136.7 586.99 139.981 589.943 142.442C593.106 144.698 597.113 146.442 601.964 147.672C606.815 148.903 613.247 150.134 621.261 151.364C622.737 151.569 624.214 151.877 625.69 152.287C627.166 152.492 628.642 152.697 630.119 152.902C642.984 154.953 654.161 157.62 663.651 160.901C673.142 163.978 680.945 168.695 687.061 175.053C693.388 181.411 696.551 189.718 696.551 199.973C696.551 210.023 693.388 219.047 687.061 227.046C680.945 235.045 672.298 241.301 661.121 245.813C650.154 250.325 637.711 252.581 623.792 252.581Z" fill="white"/>
<path d="M747.041 116.6H702.752V90.4493H747.041V72.9132C747.252 61.4276 750.099 51.2751 755.582 42.4558C761.276 33.4314 769.185 26.458 779.308 21.5356C789.431 16.408 801.241 13.8443 814.739 13.8443C825.705 13.8443 835.934 15.5876 845.424 19.0744C854.915 22.5611 862.718 27.3809 868.834 33.5339C875.161 39.6869 879.484 46.6604 881.804 54.4542L851.118 65.8373C849.009 58.4537 844.686 52.5057 838.148 47.9935C831.61 43.2762 824.229 40.9176 816.004 40.9176C805.67 40.9176 797.55 44.3017 791.645 51.07C785.74 57.8383 782.788 66.6577 782.788 77.528V90.4493H868.201V116.6H782.788V246.736H747.357L747.041 116.6Z" fill="white"/>
<path d="M993.375 251.658C972.285 251.658 953.516 248.172 937.066 241.198C920.827 234.225 908.173 224.483 899.104 211.971C890.246 199.255 885.818 184.59 885.818 167.977C885.818 151.364 890.246 136.802 899.104 124.291C908.173 111.575 920.827 101.73 937.066 94.7565C953.516 87.783 972.285 84.2963 993.375 84.2963C1014.46 84.2963 1033.13 87.783 1049.37 94.7565C1065.82 101.73 1078.58 111.575 1087.65 124.291C1096.71 136.802 1101.25 151.364 1101.25 167.977C1101.25 184.59 1096.71 199.255 1087.65 211.971C1078.58 224.483 1065.82 234.225 1049.37 241.198C1033.13 248.172 1014.46 251.658 993.375 251.658ZM993.375 214.125C1004.34 214.125 1014.04 212.176 1022.48 208.28C1030.91 204.383 1037.56 198.948 1042.41 191.974C1047.26 184.796 1049.68 176.797 1049.68 167.977C1049.68 159.158 1047.26 151.262 1042.41 144.288C1037.56 137.11 1030.91 131.572 1022.48 127.675C1014.04 123.573 1004.34 121.522 993.375 121.522C982.619 121.522 972.918 123.573 964.271 127.675C955.835 131.572 949.192 137.11 944.342 144.288C939.702 151.262 937.382 159.158 937.382 167.977C937.382 176.797 939.702 184.796 944.342 191.974C949.192 198.948 955.835 204.383 964.271 208.28C972.918 212.176 982.619 214.125 993.375 214.125Z" fill="white"/>
<path d="M1121.96 89.2187H1164.35L1171.63 118.753C1176.9 107.883 1184.39 99.4738 1194.09 93.5258C1203.79 87.3728 1214.86 84.2963 1227.3 84.2963C1238.27 84.2963 1248.18 86.7575 1257.04 91.6799C1266.11 96.3973 1273.49 103.166 1279.18 111.985C1285.09 120.804 1288.67 130.854 1289.94 142.135L1246.92 152.902C1246.28 143.058 1242.59 135.059 1235.84 128.906C1229.31 122.753 1221.4 119.676 1212.12 119.676C1204.74 119.676 1198.09 121.83 1192.19 126.137C1186.28 130.444 1181.64 136.494 1178.27 144.288C1175.11 151.877 1173.52 160.491 1173.52 170.131V246.736H1121.96V89.2187Z" fill="white"/>
<path d="M1307.31 87.9881H1369.63L1379.75 128.598C1386.08 114.446 1395.89 103.473 1409.17 95.6794C1422.67 87.8856 1438.38 83.9887 1456.31 83.9887C1475.08 83.9887 1491.42 88.706 1505.34 98.1406C1519.26 107.37 1528.86 119.574 1534.13 134.751C1539.83 119.779 1549.84 107.575 1564.18 98.1406C1578.74 88.706 1595.4 83.9887 1614.17 83.9887C1630.41 83.9887 1644.75 86.9626 1657.19 92.9105C1669.63 98.8585 1679.33 107.575 1686.29 119.061C1693.46 130.341 1697.05 143.981 1697.05 159.978V246.736H1622.39V171.977C1622.39 162.952 1620.7 155.261 1617.33 148.903C1613.96 142.34 1609.11 137.417 1602.78 134.136C1596.45 130.649 1589.18 128.906 1580.95 128.906C1572.94 128.906 1565.77 130.649 1559.44 134.136C1553.11 137.622 1548.16 142.647 1544.57 149.211C1540.99 155.774 1539.19 163.363 1539.19 171.977V246.736H1464.54V171.977C1464.54 162.952 1462.85 155.261 1459.47 148.903C1456.1 142.34 1451.25 137.417 1444.92 134.136C1438.81 130.649 1431.64 128.906 1423.41 128.906C1415.4 128.906 1408.23 130.649 1401.9 134.136C1395.78 137.622 1390.93 142.647 1387.35 149.211C1383.97 155.569 1382.29 163.157 1382.29 171.977V246.736H1307.31V87.9881Z" fill="white"/>
<path d="M1795.66 250.735C1779.42 250.735 1765.08 249.095 1752.63 245.813C1740.19 242.326 1730.49 237.404 1723.53 231.046C1716.78 224.483 1713.41 216.791 1713.41 207.972C1713.41 198.332 1717.63 189.513 1726.06 181.514C1734.71 173.515 1747.15 166.849 1763.39 161.517C1779.63 156.184 1798.72 152.595 1820.65 150.749L1882.97 145.211C1886.34 144.801 1888.98 143.981 1890.88 142.75C1892.99 141.519 1894.04 139.981 1894.04 138.135C1894.04 135.264 1891.93 132.803 1887.71 130.752C1883.5 128.701 1877.91 127.162 1870.95 126.137C1864.2 125.111 1856.71 124.599 1848.49 124.599C1835.62 124.599 1822.44 125.624 1808.94 127.675C1795.45 129.726 1782.9 132.597 1771.3 136.289C1759.7 139.776 1750.21 143.775 1742.83 148.288L1718.47 112.6C1728.17 106.857 1740.19 101.832 1754.53 97.5253C1768.87 93.2182 1784.16 89.9366 1800.4 87.6805C1816.64 85.4244 1832.67 84.2963 1848.49 84.2963C1870.84 84.2963 1891.09 86.8601 1909.23 91.9876C1927.36 97.1151 1941.6 104.601 1951.93 114.446C1962.48 124.086 1967.75 135.366 1967.75 148.288V197.204C1967.75 200.896 1969.12 203.972 1971.86 206.434C1974.81 208.69 1978.51 209.818 1982.93 209.818C1986.1 209.818 1989.58 209.203 1993.37 207.972C1997.38 206.741 2000.23 205.203 2001.92 203.357L2015.52 235.661C2010.25 240.583 2002.13 244.275 1991.16 246.736C1980.19 249.402 1968.8 250.735 1956.99 250.735C1939.91 250.735 1925.46 247.249 1913.65 240.275C1902.06 233.302 1895.62 224.072 1894.36 212.587L1894.04 210.433C1888.98 218.842 1881.6 226.123 1871.9 232.276C1862.41 238.224 1851.12 242.839 1838.05 246.121C1824.97 249.197 1810.84 250.735 1795.66 250.735ZM1822.23 210.125C1834.46 210.125 1845.75 208.895 1856.08 206.434C1866.41 203.767 1874.74 200.178 1881.07 195.666C1887.61 191.154 1891.51 186.231 1892.78 180.899V175.361L1835.2 180.283C1819.81 181.514 1808.1 183.668 1800.09 186.744C1792.28 189.615 1788.38 193.41 1788.38 198.127C1788.38 202.434 1791.23 205.511 1796.92 207.357C1802.62 209.203 1811.05 210.125 1822.23 210.125Z" fill="white"/>
<path d="M2128.2 250.735C2110.91 250.735 2095.72 248.172 2082.65 243.044C2069.78 237.712 2059.87 230.328 2052.91 220.893C2045.95 211.254 2042.47 200.076 2042.47 187.359V132.29H1996.92V87.9881H2042.16V45.5323L2117.13 32.611L2116.81 87.9881H2216.46V132.29H2116.81L2117.13 170.439C2116.92 180.488 2119.55 188.18 2125.04 193.512C2130.52 198.845 2138.75 201.511 2149.71 201.511C2160.47 201.511 2170.28 199.563 2179.13 195.666C2187.99 191.769 2196.95 186.026 2206.02 178.437L2221.84 219.355C2209.82 230.02 2196.32 237.917 2181.35 243.044C2166.37 248.172 2148.66 250.735 2128.2 250.735Z" fill="white"/>
<path d="M2240.62 87.9881H2315.28V246.736H2240.62V87.9881ZM2277.95 71.0673C2265.72 71.0673 2255.7 67.7857 2247.9 61.2225C2240.31 54.4542 2236.51 45.84 2236.51 35.3798C2236.51 25.1248 2240.31 16.7157 2247.9 10.1525C2255.7 3.38416 2265.72 0 2277.95 0C2289.97 0 2299.88 3.38416 2307.69 10.1525C2315.49 16.7157 2319.39 25.1248 2319.39 35.3798C2319.39 45.84 2315.49 54.4542 2307.69 61.2225C2299.88 67.7857 2289.97 71.0673 2277.95 71.0673Z" fill="white"/>
<path d="M2330.22 89.2187H2384.95L2438.41 209.51L2492.5 89.2187H2546.91L2470.36 246.736H2405.82L2330.22 89.2187Z" fill="white"/>
<path d="M2660.3 84.2963C2680.12 84.2963 2697.62 87.783 2712.81 94.7565C2728.2 101.73 2740.12 111.472 2748.56 123.983C2756.99 136.494 2761.21 150.954 2761.21 167.362C2761.21 169.618 2761.1 172.182 2760.89 175.053C2760.89 177.925 2760.79 180.181 2760.58 181.822H2610C2611.89 189 2615.9 195.256 2622.02 200.588C2628.13 205.921 2635.62 210.023 2644.48 212.894C2653.34 215.766 2663.04 217.201 2673.58 217.201C2687.29 217.201 2700.26 215.253 2712.49 211.356C2724.93 207.254 2734.11 202.024 2740.01 195.666L2764.37 220.278C2756.36 229.713 2743.6 237.301 2726.09 243.044C2708.59 248.787 2689.71 251.658 2669.47 251.658C2647.54 251.658 2627.92 248.069 2610.63 240.891C2593.34 233.712 2579.84 223.765 2570.14 211.048C2560.65 198.127 2555.9 183.36 2555.9 166.747C2555.9 150.749 2560.33 136.494 2569.19 123.983C2578.04 111.472 2590.38 101.73 2606.2 94.7565C2622.02 87.783 2640.05 84.2963 2660.3 84.2963ZM2659.35 118.138C2650.7 118.138 2642.9 119.574 2635.94 122.445C2629.19 125.316 2623.49 129.418 2618.85 134.751C2614.21 140.084 2610.95 146.237 2609.05 153.21H2708.7C2707.85 146.237 2705.22 140.186 2700.79 135.059C2696.36 129.726 2690.45 125.624 2683.07 122.753C2675.9 119.676 2667.99 118.138 2659.35 118.138Z" fill="white"/>
<path d="M2966.22 60.9149H2879.54V28.9192H3092.13V60.9149H3005.45V246.736H2966.22V60.9149Z" fill="white"/>
<path d="M3111.57 90.4493H3146.05V246.736H3111.57V90.4493ZM3129.28 64.6067C3122.53 64.6067 3117.05 62.6582 3112.83 58.7613C3108.61 54.6593 3106.51 49.3267 3106.51 42.7635C3106.51 36.6104 3108.61 31.4829 3112.83 27.3809C3117.05 23.2789 3122.53 21.2279 3129.28 21.2279C3136.03 21.2279 3141.51 23.2789 3145.73 27.3809C3149.95 31.4829 3152.06 36.6104 3152.06 42.7635C3152.06 49.3267 3149.95 54.6593 3145.73 58.7613C3141.51 62.6582 3136.03 64.6067 3129.28 64.6067Z" fill="white"/>
<path d="M3179.82 91.3723H3200.7L3203.23 110.139C3207.45 102.345 3213.35 96.2947 3220.94 91.9876C3228.54 87.6805 3237.08 85.5269 3246.57 85.5269C3258.38 85.5269 3268.82 88.3983 3277.89 94.1412C3287.17 99.884 3293.81 107.575 3297.82 117.215C3302.88 107.575 3309.84 99.9865 3318.69 94.4488C3327.55 88.706 3337.57 85.8346 3348.75 85.8346C3359.93 85.8346 3369.94 88.6034 3378.8 94.1412C3387.87 99.6789 3394.83 107.37 3399.68 117.215C3404.74 126.855 3407.27 137.93 3407.27 150.441V246.736H3383.23V150.134C3383.23 141.724 3381.54 134.341 3378.17 127.983C3375 121.42 3370.58 116.292 3364.88 112.6C3359.19 108.908 3352.65 107.062 3345.27 107.062C3337.46 107.062 3330.5 108.908 3324.39 112.6C3318.48 116.087 3313.84 121.112 3310.47 127.675C3307.1 134.238 3305.41 141.724 3305.41 150.134L3305.09 246.736H3281.05V150.134C3281.05 141.519 3279.47 133.931 3276.3 127.367C3273.35 120.804 3269.03 115.779 3263.33 112.293C3257.64 108.806 3251.1 107.062 3243.72 107.062C3235.71 107.062 3228.64 108.908 3222.53 112.6C3216.62 116.087 3211.98 121.112 3208.61 127.675C3205.44 134.238 3203.86 141.724 3203.86 150.134V246.736H3179.82V91.3723Z" fill="white"/>
<path d="M3487.77 87.6805C3498.73 87.6805 3508.43 91.0646 3516.87 97.833C3525.31 104.601 3531.74 114.138 3536.17 126.444C3540.81 138.751 3543.13 152.8 3543.13 168.593C3543.13 169.618 3543.13 170.746 3543.13 171.977C3543.13 173.002 3543.13 174.028 3543.13 175.053H3448.54C3449.17 186.744 3451.49 197.204 3455.5 206.434C3459.51 215.458 3464.78 222.534 3471.32 227.662C3478.07 232.789 3485.55 235.353 3493.78 235.353C3503.06 235.353 3511.7 232.071 3519.72 225.508C3527.73 218.945 3533.43 210.433 3536.8 199.973L3551.98 206.741C3547.13 220.278 3539.44 231.046 3528.89 239.045C3518.56 247.044 3506.96 251.043 3494.09 251.043C3481.86 251.043 3470.89 247.556 3461.19 240.583C3451.7 233.404 3444.32 223.56 3439.05 211.048C3433.78 198.537 3431.14 184.385 3431.14 168.593C3431.14 152.8 3433.46 138.751 3438.1 126.444C3442.74 114.138 3449.38 104.601 3458.03 97.833C3466.68 91.0646 3476.59 87.6805 3487.77 87.6805ZM3487.13 103.678C3479.96 103.678 3473.53 106.037 3467.84 110.754C3462.35 115.472 3457.92 122.137 3454.55 130.752C3451.18 139.161 3449.17 148.903 3448.54 159.978H3525.41C3524.99 148.698 3523.09 138.853 3519.72 130.444C3516.55 122.035 3512.13 115.472 3506.43 110.754C3500.95 106.037 3494.52 103.678 3487.13 103.678Z" fill="white"/>
<path d="M3611.66 250.428C3602.59 250.428 3594.47 248.377 3587.3 244.275C3580.34 239.968 3574.86 234.02 3570.85 226.431C3566.84 218.842 3564.74 210.125 3564.52 200.281L3576.86 196.897C3576.86 205.511 3578.34 212.997 3581.29 219.355C3584.24 225.508 3588.36 230.225 3593.63 233.507C3599.11 236.789 3605.23 238.429 3611.98 238.429C3617.67 238.429 3622.84 237.301 3627.48 235.045C3632.12 232.584 3635.7 229.302 3638.23 225.2C3640.98 220.893 3642.35 215.971 3642.35 210.433C3642.35 204.485 3640.87 199.255 3637.92 194.743C3634.96 190.026 3631.27 186.129 3626.84 183.052C3622.42 179.771 3617.04 176.592 3610.71 173.515C3603.33 170.028 3596.9 166.234 3591.41 162.132C3586.14 157.825 3581.71 152.8 3578.13 147.057C3574.75 141.314 3573.07 134.648 3573.07 127.06C3573.07 120.086 3574.54 113.728 3577.5 107.985C3580.45 102.038 3584.56 97.4228 3589.83 94.1412C3595.32 90.6544 3601.33 88.9111 3607.86 88.9111C3614.82 88.9111 3621.05 90.8595 3626.53 94.7565C3632.22 98.6534 3636.65 104.089 3639.82 111.062C3642.98 117.83 3644.67 125.624 3644.88 134.443L3632.22 138.135C3632.22 126.239 3629.9 117.112 3625.26 110.754C3620.83 104.191 3614.93 100.909 3607.55 100.909C3603.33 100.909 3599.53 102.038 3596.16 104.294C3592.78 106.55 3590.15 109.626 3588.25 113.523C3586.35 117.42 3585.4 121.727 3585.4 126.444C3585.4 132.392 3586.77 137.52 3589.52 141.827C3592.47 146.134 3596.05 149.928 3600.27 153.21C3604.7 156.492 3610.18 159.773 3616.72 163.055C3623.89 166.747 3630.22 170.541 3635.7 174.438C3641.19 178.335 3645.72 183.257 3649.31 189.205C3653.1 195.153 3655 202.024 3655 209.818C3655 217.407 3653.1 224.38 3649.31 230.738C3645.72 236.891 3640.55 241.711 3633.8 245.198C3627.27 248.684 3619.89 250.428 3611.66 250.428Z" fill="white"/>
</svg>
